<svg xmlns="http://www.w3.org/2000/svg" viewBox="120 285 730 1125">
  <!-- Note head (flattened ellipse) -->
  <ellipse
    cx="542.59" cy="494.64" rx="301.61" ry="187.43"
    fill="#ffdd55" stroke="#1a1a1a" stroke-width="26"
    stroke-linecap="square" stroke-linejoin="round"/>
  <!-- Curved stem / body -->
  <path
    fill="#ffdd55" stroke="#1a1a1a" stroke-width="26"
    stroke-linecap="round" stroke-linejoin="round"
    d="m 783.10149,606.83637
       c -122.44371,91.4964 -273.14365,74.00444 -273.14365,74.00444
       0,0 -11.33405,143.60329 -5.38214,223.35885
       6.72767,90.15086 -65.93123,169.53744 -65.93123,169.53744
       0,0 -121.09816,61.8946 -209.90349,56.5125
       -88.80532,-5.3822 -72.6589,-1.3456 -90.15085,-6.7277
       -17.49196,-5.3821 5.38214,92.8419 139.93566,86.1142
       134.55352,-6.7276 108.98835,-9.4187 138.59012,-14.8008
       29.60178,-5.3822 90.15086,-41.7116 90.15086,-41.7116
       0,0 -9.05763,48.216 -41.52179,86.0849
       -24.68247,28.7917 -69.14036,47.628 -97.06833,57.8873
       -65.9312,24.2197 -157.42762,34.984 -157.42762,34.984
       0,0 56.51248,86.1142 170.88297,55.1669
       114.37049,-30.9473 209.90349,-104.9518 270.45257,-192.4115
       60.54909,-87.4598 114.3705,-203.17586 121.09817,-335.03831
       6.72768,-131.86245 9.41875,-252.96062 9.41875,-252.96062 z"/>
</svg>
